<svg width="52" height="51" viewBox="0 0 52 51" fill="none" xmlns="http://www.w3.org/2000/svg">
	<mask id="path-1-inside-1_5797_498" fill="white">
		<path d="M25.538 44.625C25.2586 44.6266 24.9816 44.573 24.7229 44.4673C24.4642 44.3615 24.229 44.2057 24.0306 44.0088L7.53342 27.4763C5.46409 25.3835 4.30334 22.5581 4.30334 19.6138C4.30334 16.6694 5.46409 13.844 7.53342 11.7513C9.61894 9.66984 12.444 8.50101 15.3892 8.50101C18.3344 8.50101 21.1595 9.66984 23.245 11.7513L25.538 14.0463L27.8311 11.7513C29.9166 9.66984 32.7416 8.50101 35.6868 8.50101C38.6321 8.50101 41.4571 9.66984 43.5426 11.7513C45.612 13.844 46.7727 16.6694 46.7727 19.6138C46.7727 22.5581 45.612 25.3835 43.5426 27.4763L27.0455 44.0088C26.8471 44.2057 26.6118 44.3615 26.3531 44.4673C26.0944 44.573 25.8174 44.6266 25.538 44.625Z"/>
	</mask>
	<path d="M25.538 44.625C25.2586 44.6266 24.9816 44.573 24.7229 44.4673C24.4642 44.3615 24.229 44.2057 24.0306 44.0088L7.53342 27.4763C5.46409 25.3835 4.30334 22.5581 4.30334 19.6138C4.30334 16.6694 5.46409 13.844 7.53342 11.7513C9.61894 9.66984 12.444 8.50101 15.3892 8.50101C18.3344 8.50101 21.1595 9.66984 23.245 11.7513L25.538 14.0463L27.8311 11.7513C29.9166 9.66984 32.7416 8.50101 35.6868 8.50101C38.6321 8.50101 41.4571 9.66984 43.5426 11.7513C45.612 13.844 46.7727 16.6694 46.7727 19.6138C46.7727 22.5581 45.612 25.3835 43.5426 27.4763L27.0455 44.0088C26.8471 44.2057 26.6118 44.3615 26.3531 44.4673C26.0944 44.573 25.8174 44.6266 25.538 44.625Z" fill="white" stroke="#CCCCCC" stroke-width="8" mask="url(#path-1-inside-1_5797_498)"/>
</svg>